General
ID                                       : 1 (0x1)
Format                                   : BDAV
Format/Info                              : Blu-ray Video
File size                                : 4.37 GiB
Duration                                 : 1h 53mn
Overall bit rate mode                    : Variable
Overall bit rate                         : 5 504 Kbps
Maximum Overall bit rate                 : 35.5 Mbps

Video
ID                                       : 4113 (0x1011)
Menu ID                                  : 1 (0x1)
Format                                   : AVC
Format/Info                              : Advanced Video Codec
Format profile                           : High@L4.1
Format settings, CABAC                   : Yes
Format settings, ReFrames                : 3 frames
Codec ID                                 : 27
Duration                                 : 1h 53mn
Bit rate mode                            : Variable
Bit rate                                 : 4 734 Kbps
Maximum bit rate                         : 24.0 Mbps
Width                                    : 1 920 pixels
Height                                   : 1 080 pixels
Display aspect ratio                     : 16:9
Frame rate                               : 23.976 fps
Color space                              : YUV
Chroma subsampling                       : 4:2:0
Bit depth                                : 8 bits
Scan type                                : Progressive
Bits/(Pixel*Frame)                       : 0.095
Stream size                              : 3.83 GiB (88%)
Writing library                          : x264 core 120 r2164 da19765
Encoding settings                        : cabac=1 / ref=3 / deblock=1:0:0 / analyse=0x3:0x113 / me=umh / subme=7 / psy=1 / psy_rd=1.00:0.25 / mixed_ref=1 / me_range=16 / chroma_me=1 / trellis=1 / 8x8dct=1 / cqm=0 / deadzone=21,11 / fast_pskip=1 / chroma_qp_offset=-4 / threads=6 / sliced_threads=0 / slices=4 / nr=0 / decimate=1 / interlaced=0 / bluray_compat=1 / constrained_intra=0 / bframes=3 / b_pyramid=1 / b_adapt=1 / b_bias=0 / direct=3 / weightb=1 / open_gop=1 / weightp=0 / keyint=24 / keyint_min=1 / scenecut=40 / intra_refresh=0 / rc_lookahead=24 / rc=2pass / mbtree=1 / bitrate=4734 / ratetol=1.0 / qcomp=0.60 / qpmin=0 / qpmax=69 / qpstep=4 / cplxblur=20.0 / qblur=0.5 / vbv_maxrate=24000 / vbv_bufsize=24000 / nal_hrd=vbr / ip_ratio=1.40 / aq=1:1.00

Audio
ID                                       : 4352 (0x1100)
Menu ID                                  : 1 (0x1)
Format                                   : AC-3
Format/Info                              : Audio Coding 3
Mode extension                           : CM (complete main)
Codec ID                                 : 129
Duration                                 : 1h 53mn
Bit rate mode                            : Constant
Bit rate                                 : 448 Kbps
Channel(s)                               : 6 channels
Channel positions                        : Front: L C R, Side: L R, LFE
Sampling rate                            : 48.0 KHz
Bit depth                                : 16 bits
Compression mode                         : Lossy
Stream size                              : 364 MiB (8%)
Language                                 : English

Subtitles: English

Chapters:
00:00:00.000
00:03:59.864
00:08:52.323
00:15:50.783
00:20:23.388
00:26:17.242
00:31:01.609
00:40:01.273
00:46:15.272
00:56:53.076
01:03:32.016
01:09:18.362
01:20:38.041
01:30:12.740
01:38:33.282
01:48:26.124
01:53:35.183
